<?xml version="1.0" encoding="iso-8859-1"?>
<!-- Generator: Adobe Illustrator 19.0.0, SVG Export Plug-In . SVG Version: 6.00 Build 0)  -->
<svg version="1.1" id="Capa_1" xmlns="http://www.w3.org/2000/svg" xmlns:xlink="http://www.w3.org/1999/xlink" x="0px" y="0px"
	 viewBox="0 0 512 512" style="enable-background:new 0 0 512 512;" xml:space="preserve">
<g>
	<g>
		<path d="M492,119.72v-18.439c0-20.522-16.696-37.219-37.219-37.219h-12.856C440.381,28.477,410.959,0,375,0H137.088
			c-35.959,0-65.381,28.477-66.925,64.063H57.219C36.696,64.063,20,80.759,20,101.281v18.439C8.361,123.848,0,134.964,0,148v64
			c0,16.542,13.458,30,30,30s30-13.458,30-30v-64c0-13.036-8.361-24.152-20-28.28v-18.439c0-9.495,7.724-17.219,17.219-17.219
			h12.869v167.056C60.439,257.125,54,267.822,54,280v153c0,5.523,4.477,10,10,10h6.088v31c0,20.953,17.047,38,38,38s38-17.047,38-38
			v-31H366v31c0,20.953,17.047,38,38,38s38-17.047,38-38v-31h6c5.523,0,10-4.477,10-10l0.088-153
			c0-12.178-6.439-22.875-16.088-28.881V84.063h12.781c9.495,0,17.219,7.724,17.219,17.219v18.439c-11.639,4.128-20,15.243-20,28.28
			v64c0,16.542,13.458,30,30,30s30-13.458,30-30v-64C512,134.964,503.639,123.848,492,119.72z M40,212c0,5.514-4.486,10-10,10
			s-10-4.486-10-10v-64c0-5.514,4.486-10,10-10s10,4.486,10,10V212z M421.742,102.929L278.671,246h-12.667V84.063h92.645
			l-38.293,38.293c-3.905,3.905-3.905,10.237,0,14.143c1.953,1.953,4.512,2.929,7.071,2.929s5.119-0.976,7.071-2.929l52.436-52.436
			H422v18.633C421.915,102.775,421.825,102.846,421.742,102.929z M422,130.956V246H306.956L422,130.956z M137.088,20H375
			c24.929,0,45.376,19.511,46.899,44.063H90.189C91.712,39.511,112.159,20,137.088,20z M90.088,84.063h95.875l-63.45,63.45
			c-3.905,3.905-3.905,10.237,0,14.143c1.953,1.953,4.512,2.929,7.071,2.929c2.559,0,5.119-0.976,7.071-2.929l77.593-77.593h31.756
			v21.918L105.984,246H90.088V84.063z M246.004,134.266V246H134.27L246.004,134.266z M126.088,474c0,9.925-8.075,18-18,18
			s-18-8.075-18-18v-31h36V474z M422,474c0,9.925-8.075,18-18,18s-18-8.075-18-18v-31h36V474z M438.088,363H296.333
			c-5.523,0-10,4.477-10,10s4.477,10,10,10H438v40H74v-40h137c5.523,0,10-4.477,10-10s-4.477-10-10-10H74v-83c0-7.72,6.28-14,14-14
			h336.088c7.72,0,14,6.28,14,14V363z M492,212c0,5.514-4.486,10-10,10c-5.514,0-10-4.486-10-10v-64c0-5.514,4.486-10,10-10
			c5.514,0,10,4.486,10,10V212z"/>
	</g>
</g>
<g>
	<g>
		<path d="M305.21,151.65c-1.86-1.87-4.44-2.93-7.07-2.93s-5.21,1.06-7.07,2.93c-1.86,1.85-2.93,4.43-2.93,7.07
			c0,2.63,1.07,5.21,2.93,7.07s4.44,2.93,7.07,2.93s5.21-1.07,7.07-2.93c1.86-1.87,2.93-4.44,2.93-7.07
			C308.14,156.08,307.07,153.51,305.21,151.65z"/>
	</g>
</g>
<g>
	<g>
		<path d="M263.07,365.93c-1.86-1.86-4.44-2.93-7.07-2.93s-5.21,1.07-7.07,2.93S246,370.37,246,373s1.07,5.21,2.93,7.07
			c1.86,1.86,4.44,2.93,7.07,2.93s5.21-1.07,7.07-2.93c1.86-1.86,2.93-4.44,2.93-7.07S264.93,367.79,263.07,365.93z"/>
	</g>
</g>
<g>
	<g>
		<path d="M140.088,284.5c-16.542,0-30,13.458-30,30s13.458,30,30,30s30-13.458,30-30S156.63,284.5,140.088,284.5z M140.088,324.5
			c-5.514,0-10-4.486-10-10c0-5.514,4.486-10,10-10s10,4.486,10,10C150.088,320.014,145.602,324.5,140.088,324.5z"/>
	</g>
</g>
<g>
	<g>
		<path d="M372,284.5c-16.542,0-30,13.458-30,30s13.458,30,30,30s30-13.458,30-30S388.542,284.5,372,284.5z M372,324.5
			c-5.514,0-10-4.486-10-10c0-5.514,4.486-10,10-10c5.514,0,10,4.486,10,10C382,320.014,377.514,324.5,372,324.5z"/>
	</g>
</g>
<g>
	<g>
		<path d="M308.127,284.5h-104c-5.523,0-10,4.477-10,10v40c0,5.523,4.477,10,10,10h104c5.523,0,10-4.477,10-10v-40
			C318.127,288.977,313.65,284.5,308.127,284.5z M298.127,324.5h-84v-20h84V324.5z"/>
	</g>
</g>
<g>
	<g>
		<path d="M273.5,33h-35c-5.523,0-10,4.477-10,10s4.477,10,10,10h35c5.523,0,10-4.477,10-10S279.023,33,273.5,33z"/>
	</g>
</g>
<g>
</g>
<g>
</g>
<g>
</g>
<g>
</g>
<g>
</g>
<g>
</g>
<g>
</g>
<g>
</g>
<g>
</g>
<g>
</g>
<g>
</g>
<g>
</g>
<g>
</g>
<g>
</g>
<g>
</g>
</svg>
